<svg width="39" height="39" viewBox="0 0 39 39" fill="none" xmlns="http://www.w3.org/2000/svg">
<circle cx="19.5" cy="19.5" r="19.5" fill="#F2F2F2"/>
<path d="M11.668 11.668H13.118C14.018 11.668 14.7263 12.443 14.6513 13.3346L13.9596 21.6346C13.843 22.993 14.918 24.1596 16.2846 24.1596H25.1596C26.3596 24.1596 27.4096 23.1763 27.5013 21.9846L27.9513 15.7346C28.0513 14.3513 27.0013 13.2263 25.6096 13.2263H14.8513" stroke="#636363" stroke-width="1.5" stroke-miterlimit="10" stroke-linecap="round" stroke-linejoin="round"/>
<path d="M23.5417 28.3333C24.117 28.3333 24.5833 27.867 24.5833 27.2917C24.5833 26.7164 24.117 26.25 23.5417 26.25C22.9664 26.25 22.5 26.7164 22.5 27.2917C22.5 27.867 22.9664 28.3333 23.5417 28.3333Z" stroke="#636363" stroke-width="1.5" stroke-miterlimit="10" stroke-linecap="round" stroke-linejoin="round"/>
<path d="M16.8737 28.3333C17.449 28.3333 17.9154 27.867 17.9154 27.2917C17.9154 26.7164 17.449 26.25 16.8737 26.25C16.2984 26.25 15.832 26.7164 15.832 27.2917C15.832 27.867 16.2984 28.3333 16.8737 28.3333Z" stroke="#636363" stroke-width="1.5" stroke-miterlimit="10" stroke-linecap="round" stroke-linejoin="round"/>
<path d="M17.5 16.668H27.5" stroke="#636363" stroke-width="1.5" stroke-miterlimit="10" stroke-linecap="round" stroke-linejoin="round"/>
</svg>
