<svg width="39" height="39" viewBox="0 0 39 39" fill="none" xmlns="http://www.w3.org/2000/svg">
<circle cx="19.5" cy="19.5" r="19.5" fill="#F2F2F2"/>
<path d="M19.9982 21.668H20.8315C21.7482 21.668 22.4982 20.918 22.4982 20.0013V11.668H14.9982C13.7482 11.668 12.6565 12.3596 12.0898 13.3763" stroke="#636363" stroke-width="1.5" stroke-linecap="round" stroke-linejoin="round"/>
<path d="M11.668 24.168C11.668 25.5513 12.7846 26.668 14.168 26.668H15.0013C15.0013 25.7513 15.7513 25.0013 16.668 25.0013C17.5846 25.0013 18.3346 25.7513 18.3346 26.668H21.668C21.668 25.7513 22.418 25.0013 23.3346 25.0013C24.2513 25.0013 25.0013 25.7513 25.0013 26.668H25.8346C27.218 26.668 28.3346 25.5513 28.3346 24.168V21.668H25.8346C25.3763 21.668 25.0013 21.293 25.0013 20.8346V18.3346C25.0013 17.8763 25.3763 17.5013 25.8346 17.5013H26.9096L25.4846 15.0096C25.1846 14.493 24.6347 14.168 24.0347 14.168H22.5013V20.0013C22.5013 20.918 21.7513 21.668 20.8346 21.668H20.0013" stroke="#636363" stroke-width="1.5" stroke-linecap="round" stroke-linejoin="round"/>
<path d="M16.6667 28.3333C17.5871 28.3333 18.3333 27.5871 18.3333 26.6667C18.3333 25.7462 17.5871 25 16.6667 25C15.7462 25 15 25.7462 15 26.6667C15 27.5871 15.7462 28.3333 16.6667 28.3333Z" stroke="#636363" stroke-width="1.5" stroke-linecap="round" stroke-linejoin="round"/>
<path d="M23.3346 28.3333C24.2551 28.3333 25.0013 27.5871 25.0013 26.6667C25.0013 25.7462 24.2551 25 23.3346 25C22.4142 25 21.668 25.7462 21.668 26.6667C21.668 27.5871 22.4142 28.3333 23.3346 28.3333Z" stroke="#636363" stroke-width="1.5" stroke-linecap="round" stroke-linejoin="round"/>
<path d="M28.3333 20V21.6667H25.8333C25.375 21.6667 25 21.2917 25 20.8333V18.3333C25 17.875 25.375 17.5 25.8333 17.5H26.9083L28.3333 20Z" stroke="#636363" stroke-width="1.5" stroke-linecap="round" stroke-linejoin="round"/>
<path d="M11.668 16.668H16.668" stroke="#636363" stroke-width="1.5" stroke-linecap="round" stroke-linejoin="round"/>
<path d="M11.668 19.168H15.0013" stroke="#636363" stroke-width="1.5" stroke-linecap="round" stroke-linejoin="round"/>
<path d="M11.668 21.668H13.3346" stroke="#636363" stroke-width="1.5" stroke-linecap="round" stroke-linejoin="round"/>
</svg>
